<svg width="719" height="441" viewBox="0 0 719 441" fill="none" xmlns="http://www.w3.org/2000/svg">
<path d="M28.896 96.768C23.776 96.768 19.296 95.968 15.456 94.368C11.616 92.704 8.64 90.368 6.528 87.36C4.48 84.288 3.456 80.736 3.456 76.704V74.592C3.456 74.272 3.552 74.016 3.744 73.824C4 73.568 4.288 73.44 4.608 73.44H15.552C15.872 73.44 16.128 73.568 16.32 73.824C16.576 74.016 16.704 74.272 16.704 74.592V76.032C16.704 78.592 17.888 80.768 20.256 82.56C22.624 84.288 25.824 85.152 29.856 85.152C33.248 85.152 35.776 84.448 37.44 83.04C39.104 81.568 39.936 79.776 39.936 77.664C39.936 76.128 39.424 74.848 38.4 73.824C37.376 72.736 35.968 71.808 34.176 71.04C32.448 70.208 29.664 69.088 25.824 67.68C21.536 66.208 17.888 64.704 14.88 63.168C11.936 61.632 9.44 59.552 7.392 56.928C5.408 54.24 4.416 50.944 4.416 47.04C4.416 43.2 5.408 39.84 7.392 36.96C9.376 34.08 12.128 31.872 15.648 30.336C19.168 28.8 23.232 28.032 27.84 28.032C32.704 28.032 37.024 28.896 40.8 30.624C44.64 32.352 47.616 34.784 49.728 37.92C51.904 40.992 52.992 44.576 52.992 48.672V50.112C52.992 50.432 52.864 50.72 52.608 50.976C52.416 51.168 52.16 51.264 51.84 51.264H40.8C40.48 51.264 40.192 51.168 39.936 50.976C39.744 50.72 39.648 50.432 39.648 50.112V49.344C39.648 46.656 38.528 44.384 36.288 42.528C34.112 40.608 31.104 39.648 27.264 39.648C24.256 39.648 21.888 40.288 20.16 41.568C18.496 42.848 17.664 44.608 17.664 46.848C17.664 48.448 18.144 49.792 19.104 50.88C20.128 51.968 21.6 52.96 23.52 53.856C25.504 54.688 28.544 55.84 32.64 57.312C37.184 58.976 40.736 60.448 43.296 61.728C45.92 63.008 48.256 64.928 50.304 67.488C52.416 69.984 53.472 73.248 53.472 77.28C53.472 83.296 51.264 88.064 46.848 91.584C42.432 95.04 36.448 96.768 28.896 96.768ZM86.8538 97.056C81.8618 97.056 77.4458 96.032 73.6058 93.984C69.8298 91.936 66.8858 89.088 64.7738 85.44C62.6618 81.728 61.6058 77.472 61.6058 72.672V52.128C61.6058 47.392 62.6618 43.2 64.7738 39.552C66.8858 35.904 69.8298 33.088 73.6058 31.104C77.4458 29.056 81.8618 28.032 86.8538 28.032C91.9098 28.032 96.3258 29.056 100.102 31.104C103.942 33.088 106.918 35.904 109.03 39.552C111.142 43.2 112.198 47.392 112.198 52.128V72.672C112.198 77.472 111.142 81.728 109.03 85.44C106.918 89.152 103.942 92.032 100.102 94.08C96.3258 96.064 91.9098 97.056 86.8538 97.056ZM86.8538 85.44C90.3738 85.44 93.2218 84.32 95.3978 82.08C97.5738 79.84 98.6618 76.864 98.6618 73.152V52.032C98.6618 48.32 97.5738 45.344 95.3978 43.104C93.2858 40.8 90.4378 39.648 86.8538 39.648C83.3338 39.648 80.4858 40.8 78.3098 43.104C76.1978 45.344 75.1418 48.32 75.1418 52.032V73.152C75.1418 76.864 76.1978 79.84 78.3098 82.08C80.4858 84.32 83.3338 85.44 86.8538 85.44ZM123.727 96C123.407 96 123.119 95.904 122.863 95.712C122.671 95.456 122.575 95.168 122.575 94.848V29.952C122.575 29.632 122.671 29.376 122.863 29.184C123.119 28.928 123.407 28.8 123.727 28.8H134.959C135.279 28.8 135.535 28.928 135.727 29.184C135.983 29.376 136.111 29.632 136.111 29.952V83.904C136.111 84.224 136.271 84.384 136.591 84.384H167.983C168.303 84.384 168.559 84.512 168.751 84.768C169.007 84.96 169.135 85.216 169.135 85.536V94.848C169.135 95.168 169.007 95.456 168.751 95.712C168.559 95.904 168.303 96 167.983 96H123.727Z" fill="white"/>
<path d="M332.056 29.568C332.376 29.056 332.824 28.8 333.4 28.8H344.632C344.952 28.8 345.208 28.928 345.4 29.184C345.656 29.376 345.784 29.632 345.784 29.952V94.848C345.784 95.168 345.656 95.456 345.4 95.712C345.208 95.904 344.952 96 344.632 96H333.4C333.08 96 332.792 95.904 332.536 95.712C332.344 95.456 332.248 95.168 332.248 94.848V52.512C332.248 52.256 332.184 52.128 332.056 52.128C331.928 52.128 331.8 52.224 331.672 52.416L321.496 68.352C321.176 68.864 320.728 69.12 320.152 69.12H314.488C313.912 69.12 313.464 68.864 313.144 68.352L302.968 52.416C302.84 52.224 302.712 52.16 302.584 52.224C302.456 52.224 302.392 52.352 302.392 52.608V94.848C302.392 95.168 302.264 95.456 302.008 95.712C301.816 95.904 301.56 96 301.24 96H290.008C289.688 96 289.4 95.904 289.144 95.712C288.952 95.456 288.856 95.168 288.856 94.848V29.952C288.856 29.632 288.952 29.376 289.144 29.184C289.4 28.928 289.688 28.8 290.008 28.8H301.24C301.816 28.8 302.264 29.056 302.584 29.568L316.984 51.936C317.176 52.32 317.368 52.32 317.56 51.936L332.056 29.568ZM381.385 97.056C376.393 97.056 371.977 96.032 368.137 93.984C364.361 91.936 361.417 89.088 359.305 85.44C357.193 81.728 356.137 77.472 356.137 72.672V52.128C356.137 47.392 357.193 43.2 359.305 39.552C361.417 35.904 364.361 33.088 368.137 31.104C371.977 29.056 376.393 28.032 381.385 28.032C386.441 28.032 390.857 29.056 394.633 31.104C398.473 33.088 401.449 35.904 403.561 39.552C405.673 43.2 406.729 47.392 406.729 52.128V72.672C406.729 77.472 405.673 81.728 403.561 85.44C401.449 89.152 398.473 92.032 394.633 94.08C390.857 96.064 386.441 97.056 381.385 97.056ZM381.385 85.44C384.905 85.44 387.753 84.32 389.929 82.08C392.105 79.84 393.193 76.864 393.193 73.152V52.032C393.193 48.32 392.105 45.344 389.929 43.104C387.817 40.8 384.969 39.648 381.385 39.648C377.865 39.648 375.017 40.8 372.841 43.104C370.729 45.344 369.673 48.32 369.673 52.032V73.152C369.673 76.864 370.729 79.84 372.841 82.08C375.017 84.32 377.865 85.44 381.385 85.44ZM455.698 29.952C455.698 29.632 455.794 29.376 455.986 29.184C456.242 28.928 456.53 28.8 456.85 28.8H468.082C468.402 28.8 468.658 28.928 468.85 29.184C469.106 29.376 469.234 29.632 469.234 29.952V94.848C469.234 95.168 469.106 95.456 468.85 95.712C468.658 95.904 468.402 96 468.082 96H457.234C456.594 96 456.146 95.744 455.89 95.232L431.026 54.144C430.898 53.952 430.77 53.888 430.642 53.952C430.514 53.952 430.45 54.08 430.45 54.336L430.642 94.848C430.642 95.168 430.514 95.456 430.258 95.712C430.066 95.904 429.81 96 429.49 96H418.258C417.938 96 417.65 95.904 417.394 95.712C417.202 95.456 417.106 95.168 417.106 94.848V29.952C417.106 29.632 417.202 29.376 417.394 29.184C417.65 28.928 417.938 28.8 418.258 28.8H429.106C429.746 28.8 430.194 29.056 430.45 29.568L455.218 70.464C455.346 70.656 455.474 70.752 455.602 70.752C455.73 70.688 455.794 70.528 455.794 70.272L455.698 29.952Z" fill="white"/>
<path d="M143.472 227.768C138.48 227.768 134.096 226.808 130.32 224.888C126.544 222.904 123.632 220.152 121.584 216.632C119.536 213.112 118.512 209.048 118.512 204.44V182.264C118.512 177.656 119.536 173.592 121.584 170.072C123.632 166.552 126.544 163.832 130.32 161.912C134.096 159.992 138.48 159.032 143.472 159.032C148.4 159.032 152.72 159.96 156.432 161.816C160.208 163.608 163.12 166.2 165.168 169.592C167.28 172.92 168.336 176.792 168.336 181.208C168.336 181.784 167.952 182.136 167.184 182.264L155.952 182.936H155.76C155.12 182.936 154.8 182.584 154.8 181.88C154.8 178.488 153.744 175.768 151.632 173.72C149.584 171.672 146.864 170.648 143.472 170.648C140.016 170.648 137.232 171.672 135.12 173.72C133.072 175.768 132.048 178.488 132.048 181.88V205.016C132.048 208.344 133.072 211.032 135.12 213.08C137.232 215.128 140.016 216.152 143.472 216.152C146.864 216.152 149.584 215.128 151.632 213.08C153.744 211.032 154.8 208.344 154.8 205.016C154.8 204.312 155.184 203.96 155.952 203.96L167.184 204.44C167.504 204.44 167.76 204.536 167.952 204.728C168.208 204.92 168.336 205.144 168.336 205.4C168.336 209.816 167.28 213.72 165.168 217.112C163.12 220.504 160.208 223.128 156.432 224.984C152.72 226.84 148.4 227.768 143.472 227.768Z" fill="white"/>
<path d="M326.448 160.952C326.448 160.632 326.544 160.376 326.736 160.184C326.992 159.928 327.28 159.8 327.6 159.8H338.832C339.152 159.8 339.408 159.928 339.6 160.184C339.856 160.376 339.984 160.632 339.984 160.952V225.848C339.984 226.168 339.856 226.456 339.6 226.712C339.408 226.904 339.152 227 338.832 227H327.984C327.344 227 326.896 226.744 326.64 226.232L301.776 185.144C301.648 184.952 301.52 184.888 301.392 184.952C301.264 184.952 301.2 185.08 301.2 185.336L301.392 225.848C301.392 226.168 301.264 226.456 301.008 226.712C300.816 226.904 300.56 227 300.24 227H289.008C288.688 227 288.4 226.904 288.144 226.712C287.952 226.456 287.856 226.168 287.856 225.848V160.952C287.856 160.632 287.952 160.376 288.144 160.184C288.4 159.928 288.688 159.8 289.008 159.8H299.856C300.496 159.8 300.944 160.056 301.2 160.568L325.968 201.464C326.096 201.656 326.224 201.752 326.352 201.752C326.48 201.688 326.544 201.528 326.544 201.272L326.448 160.952ZM374.74 227.768C369.62 227.768 365.14 226.968 361.3 225.368C357.46 223.704 354.484 221.368 352.372 218.36C350.324 215.288 349.3 211.736 349.3 207.704V205.592C349.3 205.272 349.396 205.016 349.588 204.824C349.844 204.568 350.132 204.44 350.452 204.44H361.396C361.716 204.44 361.972 204.568 362.164 204.824C362.42 205.016 362.548 205.272 362.548 205.592V207.032C362.548 209.592 363.732 211.768 366.1 213.56C368.468 215.288 371.668 216.152 375.7 216.152C379.092 216.152 381.62 215.448 383.284 214.04C384.948 212.568 385.78 210.776 385.78 208.664C385.78 207.128 385.268 205.848 384.244 204.824C383.22 203.736 381.812 202.808 380.02 202.04C378.292 201.208 375.508 200.088 371.668 198.68C367.38 197.208 363.732 195.704 360.724 194.168C357.78 192.632 355.284 190.552 353.236 187.928C351.252 185.24 350.26 181.944 350.26 178.04C350.26 174.2 351.252 170.84 353.236 167.96C355.22 165.08 357.972 162.872 361.492 161.336C365.012 159.8 369.076 159.032 373.684 159.032C378.548 159.032 382.868 159.896 386.644 161.624C390.484 163.352 393.46 165.784 395.572 168.92C397.748 171.992 398.836 175.576 398.836 179.672V181.112C398.836 181.432 398.708 181.72 398.452 181.976C398.26 182.168 398.004 182.264 397.684 182.264H386.644C386.324 182.264 386.036 182.168 385.78 181.976C385.588 181.72 385.492 181.432 385.492 181.112V180.344C385.492 177.656 384.372 175.384 382.132 173.528C379.956 171.608 376.948 170.648 373.108 170.648C370.1 170.648 367.732 171.288 366.004 172.568C364.34 173.848 363.508 175.608 363.508 177.848C363.508 179.448 363.988 180.792 364.948 181.88C365.972 182.968 367.444 183.96 369.364 184.856C371.348 185.688 374.388 186.84 378.484 188.312C383.028 189.976 386.58 191.448 389.14 192.728C391.764 194.008 394.1 195.928 396.148 198.488C398.26 200.984 399.316 204.248 399.316 208.28C399.316 214.296 397.108 219.064 392.692 222.584C388.276 226.04 382.292 227.768 374.74 227.768ZM433.178 227.768C428.25 227.768 423.898 226.808 420.122 224.888C416.41 222.968 413.498 220.28 411.386 216.824C409.338 213.304 408.314 209.272 408.314 204.728V160.952C408.314 160.632 408.41 160.376 408.602 160.184C408.858 159.928 409.146 159.8 409.466 159.8H420.698C421.018 159.8 421.274 159.928 421.466 160.184C421.722 160.376 421.85 160.632 421.85 160.952V204.824C421.85 208.216 422.874 210.968 424.922 213.08C427.034 215.128 429.786 216.152 433.178 216.152C436.57 216.152 439.29 215.128 441.338 213.08C443.45 210.968 444.506 208.216 444.506 204.824V160.952C444.506 160.632 444.602 160.376 444.794 160.184C445.05 159.928 445.338 159.8 445.658 159.8H456.89C457.21 159.8 457.466 159.928 457.658 160.184C457.914 160.376 458.042 160.632 458.042 160.952V204.728C458.042 209.272 456.986 213.304 454.874 216.824C452.826 220.28 449.914 222.968 446.138 224.888C442.426 226.808 438.106 227.768 433.178 227.768ZM470.321 227C470.001 227 469.713 226.904 469.457 226.712C469.265 226.456 469.169 226.168 469.169 225.848V160.952C469.169 160.632 469.265 160.376 469.457 160.184C469.713 159.928 470.001 159.8 470.321 159.8H481.553C481.873 159.8 482.129 159.928 482.321 160.184C482.577 160.376 482.705 160.632 482.705 160.952V214.904C482.705 215.224 482.865 215.384 483.185 215.384H514.577C514.897 215.384 515.153 215.512 515.345 215.768C515.601 215.96 515.729 216.216 515.729 216.536V225.848C515.729 226.168 515.601 226.456 515.345 226.712C515.153 226.904 514.897 227 514.577 227H470.321ZM562.505 159.8C562.825 159.8 563.081 159.928 563.273 160.184C563.529 160.376 563.657 160.632 563.657 160.952V170.36C563.657 170.68 563.529 170.968 563.273 171.224C563.081 171.416 562.825 171.512 562.505 171.512H545.321C545.001 171.512 544.841 171.672 544.841 171.992V225.848C544.841 226.168 544.713 226.456 544.457 226.712C544.265 226.904 544.009 227 543.689 227H532.457C532.137 227 531.849 226.904 531.593 226.712C531.401 226.456 531.305 226.168 531.305 225.848V171.992C531.305 171.672 531.145 171.512 530.825 171.512H514.121C513.801 171.512 513.513 171.416 513.257 171.224C513.065 170.968 512.969 170.68 512.969 170.36V160.952C512.969 160.632 513.065 160.376 513.257 160.184C513.513 159.928 513.801 159.8 514.121 159.8H562.505ZM573.446 227C573.126 227 572.838 226.904 572.582 226.712C572.39 226.456 572.294 226.168 572.294 225.848V160.952C572.294 160.632 572.39 160.376 572.582 160.184C572.838 159.928 573.126 159.8 573.446 159.8H584.678C584.998 159.8 585.254 159.928 585.446 160.184C585.702 160.376 585.83 160.632 585.83 160.952V225.848C585.83 226.168 585.702 226.456 585.446 226.712C585.254 226.904 584.998 227 584.678 227H573.446ZM636.104 160.952C636.104 160.632 636.2 160.376 636.392 160.184C636.648 159.928 636.936 159.8 637.256 159.8H648.488C648.808 159.8 649.064 159.928 649.256 160.184C649.512 160.376 649.64 160.632 649.64 160.952V225.848C649.64 226.168 649.512 226.456 649.256 226.712C649.064 226.904 648.808 227 648.488 227H637.64C637 227 636.552 226.744 636.296 226.232L611.432 185.144C611.304 184.952 611.176 184.888 611.048 184.952C610.92 184.952 610.856 185.08 610.856 185.336L611.048 225.848C611.048 226.168 610.92 226.456 610.664 226.712C610.472 226.904 610.216 227 609.896 227H598.664C598.344 227 598.056 226.904 597.8 226.712C597.608 226.456 597.512 226.168 597.512 225.848V160.952C597.512 160.632 597.608 160.376 597.8 160.184C598.056 159.928 598.344 159.8 598.664 159.8H609.512C610.152 159.8 610.6 160.056 610.856 160.568L635.624 201.464C635.752 201.656 635.88 201.752 636.008 201.752C636.136 201.688 636.2 201.528 636.2 201.272L636.104 160.952ZM684.972 227.768C680.044 227.768 675.692 226.776 671.916 224.792C668.14 222.808 665.196 220.056 663.084 216.536C661.036 212.952 660.012 208.824 660.012 204.152V182.648C660.012 177.976 661.036 173.848 663.084 170.264C665.196 166.68 668.14 163.928 671.916 162.008C675.692 160.024 680.044 159.032 684.972 159.032C689.836 159.032 694.124 159.992 697.836 161.912C701.612 163.832 704.524 166.456 706.572 169.784C708.684 173.048 709.74 176.696 709.74 180.728V181.4C709.74 181.72 709.612 182.008 709.356 182.264C709.164 182.456 708.908 182.552 708.588 182.552H697.356C697.036 182.552 696.748 182.456 696.492 182.264C696.3 182.008 696.204 181.72 696.204 181.4V181.112C696.204 178.168 695.18 175.704 693.132 173.72C691.084 171.672 688.364 170.648 684.972 170.648C681.516 170.648 678.732 171.736 676.62 173.912C674.572 176.024 673.548 178.808 673.548 182.264V204.536C673.548 207.992 674.668 210.808 676.908 212.984C679.148 215.096 681.996 216.152 685.452 216.152C688.78 216.152 691.436 215.288 693.42 213.56C695.404 211.768 696.396 209.304 696.396 206.168V201.848C696.396 201.528 696.236 201.368 695.916 201.368H685.164C684.844 201.368 684.556 201.272 684.3 201.08C684.108 200.824 684.012 200.536 684.012 200.216V191.384C684.012 191.064 684.108 190.808 684.3 190.616C684.556 190.36 684.844 190.232 685.164 190.232H708.588C708.908 190.232 709.164 190.36 709.356 190.616C709.612 190.808 709.74 191.064 709.74 191.384V204.056C709.74 208.92 708.716 213.144 706.668 216.728C704.62 220.312 701.708 223.064 697.932 224.984C694.22 226.84 689.9 227.768 684.972 227.768Z" fill="white"/>
<rect x="193.191" y="10" width="68.9787" height="226" rx="34.4894" stroke="#FFC440" stroke-width="20"/>
<path d="M356.313 352.056L330.812 326.556C329.05 324.794 329.05 321.944 330.812 320.2L335.05 315.963C336.812 314.2 339.662 314.2 341.406 315.963L359.481 334.038L377.556 315.963C379.319 314.2 382.169 314.2 383.913 315.963L388.15 320.2C389.912 321.962 389.912 324.813 388.15 326.556L362.65 352.056C360.925 353.819 358.075 353.819 356.313 352.056Z" fill="white"/>
<path d="M280.816 438.128C279.963 438.128 279.216 437.995 278.576 437.728C277.936 437.451 277.44 437.061 277.088 436.56C276.747 436.048 276.576 435.456 276.576 434.784V434.432C276.576 434.379 276.592 434.336 276.624 434.304C276.667 434.261 276.715 434.24 276.768 434.24H278.592C278.645 434.24 278.688 434.261 278.72 434.304C278.763 434.336 278.784 434.379 278.784 434.432V434.672C278.784 435.099 278.981 435.461 279.376 435.76C279.771 436.048 280.304 436.192 280.976 436.192C281.541 436.192 281.963 436.075 282.24 435.84C282.517 435.595 282.656 435.296 282.656 434.944C282.656 434.688 282.571 434.475 282.4 434.304C282.229 434.123 281.995 433.968 281.696 433.84C281.408 433.701 280.944 433.515 280.304 433.28C279.589 433.035 278.981 432.784 278.48 432.528C277.989 432.272 277.573 431.925 277.232 431.488C276.901 431.04 276.736 430.491 276.736 429.84C276.736 429.2 276.901 428.64 277.232 428.16C277.563 427.68 278.021 427.312 278.608 427.056C279.195 426.8 279.872 426.672 280.64 426.672C281.451 426.672 282.171 426.816 282.8 427.104C283.44 427.392 283.936 427.797 284.288 428.32C284.651 428.832 284.832 429.429 284.832 430.112V430.352C284.832 430.405 284.811 430.453 284.768 430.496C284.736 430.528 284.693 430.544 284.64 430.544H282.8C282.747 430.544 282.699 430.528 282.656 430.496C282.624 430.453 282.608 430.405 282.608 430.352V430.224C282.608 429.776 282.421 429.397 282.048 429.088C281.685 428.768 281.184 428.608 280.544 428.608C280.043 428.608 279.648 428.715 279.36 428.928C279.083 429.141 278.944 429.435 278.944 429.808C278.944 430.075 279.024 430.299 279.184 430.48C279.355 430.661 279.6 430.827 279.92 430.976C280.251 431.115 280.757 431.307 281.44 431.552C282.197 431.829 282.789 432.075 283.216 432.288C283.653 432.501 284.043 432.821 284.384 433.248C284.736 433.664 284.912 434.208 284.912 434.88C284.912 435.883 284.544 436.677 283.808 437.264C283.072 437.84 282.075 438.128 280.816 438.128ZM289.964 438.128C289.11 438.128 288.369 437.915 287.74 437.488C287.121 437.061 286.678 436.475 286.412 435.728C286.23 435.195 286.14 434.565 286.14 433.84C286.14 433.125 286.23 432.507 286.412 431.984C286.668 431.259 287.11 430.688 287.74 430.272C288.369 429.856 289.11 429.648 289.964 429.648C290.817 429.648 291.564 429.861 292.204 430.288C292.854 430.715 293.286 431.253 293.5 431.904C293.585 432.16 293.628 432.352 293.628 432.48V432.512C293.628 432.608 293.574 432.667 293.468 432.688L291.628 432.96H291.596C291.5 432.96 291.436 432.907 291.404 432.8L291.356 432.544C291.281 432.267 291.116 432.037 290.86 431.856C290.604 431.675 290.3 431.584 289.948 431.584C289.606 431.584 289.318 431.669 289.084 431.84C288.849 432.011 288.684 432.245 288.588 432.544C288.47 432.864 288.412 433.301 288.412 433.856C288.412 434.411 288.465 434.848 288.572 435.168C288.668 435.488 288.833 435.739 289.068 435.92C289.313 436.101 289.606 436.192 289.948 436.192C290.278 436.192 290.566 436.107 290.812 435.936C291.068 435.755 291.244 435.509 291.34 435.2C291.35 435.179 291.356 435.147 291.356 435.104C291.366 435.093 291.372 435.077 291.372 435.056C291.382 434.928 291.457 434.875 291.596 434.896L293.436 435.184C293.542 435.205 293.596 435.264 293.596 435.36C293.596 435.445 293.564 435.605 293.5 435.84C293.276 436.555 292.838 437.115 292.188 437.52C291.548 437.925 290.806 438.128 289.964 438.128ZM299.037 429.664C299.421 429.664 299.725 429.739 299.949 429.888C300.035 429.931 300.067 430.011 300.045 430.128L299.709 431.952C299.699 432.08 299.624 432.117 299.485 432.064C299.325 432.011 299.139 431.984 298.925 431.984C298.84 431.984 298.723 431.995 298.573 432.016C298.189 432.048 297.864 432.192 297.597 432.448C297.331 432.693 297.197 433.024 297.197 433.44V437.808C297.197 437.861 297.176 437.909 297.133 437.952C297.101 437.984 297.059 438 297.005 438H295.133C295.08 438 295.032 437.984 294.989 437.952C294.957 437.909 294.941 437.861 294.941 437.808V429.968C294.941 429.915 294.957 429.872 294.989 429.84C295.032 429.797 295.08 429.776 295.133 429.776H297.005C297.059 429.776 297.101 429.797 297.133 429.84C297.176 429.872 297.197 429.915 297.197 429.968V430.576C297.197 430.608 297.208 430.629 297.229 430.64C297.251 430.651 297.267 430.645 297.277 430.624C297.715 429.984 298.301 429.664 299.037 429.664ZM304.495 438.128C303.599 438.128 302.831 437.893 302.191 437.424C301.551 436.955 301.114 436.315 300.879 435.504C300.73 435.003 300.655 434.459 300.655 433.872C300.655 433.243 300.73 432.677 300.879 432.176C301.125 431.387 301.567 430.768 302.207 430.32C302.847 429.872 303.615 429.648 304.511 429.648C305.386 429.648 306.133 429.872 306.751 430.32C307.37 430.757 307.807 431.371 308.063 432.16C308.234 432.693 308.319 433.253 308.319 433.84C308.319 434.416 308.245 434.955 308.095 435.456C307.861 436.288 307.423 436.944 306.783 437.424C306.154 437.893 305.391 438.128 304.495 438.128ZM304.495 436.192C304.847 436.192 305.146 436.085 305.391 435.872C305.637 435.659 305.813 435.365 305.919 434.992C306.005 434.651 306.047 434.277 306.047 433.872C306.047 433.424 306.005 433.045 305.919 432.736C305.802 432.373 305.621 432.091 305.375 431.888C305.13 431.685 304.831 431.584 304.479 431.584C304.117 431.584 303.813 431.685 303.567 431.888C303.333 432.091 303.162 432.373 303.055 432.736C302.97 432.992 302.927 433.371 302.927 433.872C302.927 434.352 302.965 434.725 303.039 434.992C303.146 435.365 303.322 435.659 303.567 435.872C303.823 436.085 304.133 436.192 304.495 436.192ZM309.962 438C309.908 438 309.86 437.984 309.818 437.952C309.786 437.909 309.77 437.861 309.77 437.808V426.992C309.77 426.939 309.786 426.896 309.818 426.864C309.86 426.821 309.908 426.8 309.962 426.8H311.834C311.887 426.8 311.93 426.821 311.962 426.864C312.004 426.896 312.026 426.939 312.026 426.992V437.808C312.026 437.861 312.004 437.909 311.962 437.952C311.93 437.984 311.887 438 311.834 438H309.962ZM313.868 438C313.814 438 313.766 437.984 313.724 437.952C313.692 437.909 313.676 437.861 313.676 437.808V426.992C313.676 426.939 313.692 426.896 313.724 426.864C313.766 426.821 313.814 426.8 313.868 426.8H315.74C315.793 426.8 315.836 426.821 315.868 426.864C315.91 426.896 315.932 426.939 315.932 426.992V437.808C315.932 437.861 315.91 437.909 315.868 437.952C315.836 437.984 315.793 438 315.74 438H313.868ZM321.121 438C321.068 438 321.02 437.984 320.977 437.952C320.945 437.909 320.929 437.861 320.929 437.808V426.992C320.929 426.939 320.945 426.896 320.977 426.864C321.02 426.821 321.068 426.8 321.121 426.8H325.121C325.921 426.8 326.62 426.944 327.217 427.232C327.825 427.509 328.294 427.904 328.625 428.416C328.956 428.928 329.121 429.52 329.121 430.192V434.608C329.121 435.28 328.956 435.872 328.625 436.384C328.294 436.896 327.825 437.296 327.217 437.584C326.62 437.861 325.921 438 325.121 438H321.121ZM323.185 435.984C323.185 436.037 323.212 436.064 323.265 436.064H325.201C325.692 436.064 326.086 435.899 326.385 435.568C326.694 435.237 326.854 434.795 326.865 434.24V430.56C326.865 430.005 326.71 429.563 326.401 429.232C326.102 428.901 325.697 428.736 325.185 428.736H323.265C323.212 428.736 323.185 428.763 323.185 428.816V435.984ZM334.308 438.128C333.412 438.128 332.644 437.893 332.004 437.424C331.364 436.955 330.926 436.315 330.692 435.504C330.542 435.003 330.468 434.459 330.468 433.872C330.468 433.243 330.542 432.677 330.692 432.176C330.937 431.387 331.38 430.768 332.02 430.32C332.66 429.872 333.428 429.648 334.324 429.648C335.198 429.648 335.945 429.872 336.564 430.32C337.182 430.757 337.62 431.371 337.876 432.16C338.046 432.693 338.132 433.253 338.132 433.84C338.132 434.416 338.057 434.955 337.908 435.456C337.673 436.288 337.236 436.944 336.596 437.424C335.966 437.893 335.204 438.128 334.308 438.128ZM334.308 436.192C334.66 436.192 334.958 436.085 335.204 435.872C335.449 435.659 335.625 435.365 335.732 434.992C335.817 434.651 335.86 434.277 335.86 433.872C335.86 433.424 335.817 433.045 335.732 432.736C335.614 432.373 335.433 432.091 335.188 431.888C334.942 431.685 334.644 431.584 334.292 431.584C333.929 431.584 333.625 431.685 333.38 431.888C333.145 432.091 332.974 432.373 332.868 432.736C332.782 432.992 332.74 433.371 332.74 433.872C332.74 434.352 332.777 434.725 332.852 434.992C332.958 435.365 333.134 435.659 333.38 435.872C333.636 436.085 333.945 436.192 334.308 436.192ZM341.177 438C341.06 438 340.985 437.947 340.953 437.84L338.649 429.984L338.633 429.92C338.633 429.813 338.692 429.76 338.809 429.76H340.745C340.862 429.76 340.937 429.813 340.969 429.92L342.121 434.752C342.132 434.784 342.148 434.8 342.169 434.8C342.19 434.8 342.206 434.784 342.217 434.752L343.417 429.92C343.449 429.813 343.524 429.76 343.641 429.76H345.321C345.438 429.76 345.513 429.813 345.545 429.92L346.809 434.768C346.82 434.8 346.836 434.816 346.857 434.816C346.878 434.816 346.894 434.8 346.905 434.768L348.153 429.92C348.185 429.813 348.26 429.76 348.377 429.76L350.297 429.792C350.361 429.792 350.404 429.813 350.425 429.856C350.457 429.888 350.468 429.936 350.457 430L348.121 437.84C348.089 437.947 348.02 438 347.913 438H345.977C345.86 438 345.785 437.947 345.753 437.84L344.521 433.552C344.51 433.52 344.494 433.504 344.473 433.504C344.452 433.504 344.436 433.52 344.425 433.552L343.337 437.84C343.305 437.947 343.23 438 343.113 438H341.177ZM355.948 429.648C356.801 429.648 357.489 429.909 358.012 430.432C358.535 430.955 358.796 431.664 358.796 432.56V437.808C358.796 437.861 358.775 437.909 358.732 437.952C358.7 437.984 358.657 438 358.604 438H356.732C356.679 438 356.631 437.984 356.588 437.952C356.556 437.909 356.54 437.861 356.54 437.808V433.024C356.54 432.597 356.417 432.251 356.172 431.984C355.937 431.717 355.623 431.584 355.228 431.584C354.833 431.584 354.513 431.717 354.268 431.984C354.033 432.251 353.916 432.597 353.916 433.024V437.808C353.916 437.861 353.895 437.909 353.852 437.952C353.82 437.984 353.777 438 353.724 438H351.852C351.799 438 351.751 437.984 351.708 437.952C351.676 437.909 351.66 437.861 351.66 437.808V429.968C351.66 429.915 351.676 429.872 351.708 429.84C351.751 429.797 351.799 429.776 351.852 429.776H353.724C353.777 429.776 353.82 429.797 353.852 429.84C353.895 429.872 353.916 429.915 353.916 429.968V430.528C353.916 430.56 353.927 430.581 353.948 430.592C353.969 430.603 353.985 430.597 353.996 430.576C354.433 429.957 355.084 429.648 355.948 429.648ZM371.485 426.8C371.539 426.8 371.581 426.821 371.613 426.864C371.656 426.896 371.677 426.939 371.677 426.992V428.56C371.677 428.613 371.656 428.661 371.613 428.704C371.581 428.736 371.539 428.752 371.485 428.752H368.621C368.568 428.752 368.541 428.779 368.541 428.832V437.808C368.541 437.861 368.52 437.909 368.477 437.952C368.445 437.984 368.403 438 368.349 438H366.477C366.424 438 366.376 437.984 366.333 437.952C366.301 437.909 366.285 437.861 366.285 437.808V428.832C366.285 428.779 366.259 428.752 366.205 428.752H363.421C363.368 428.752 363.32 428.736 363.277 428.704C363.245 428.661 363.229 428.613 363.229 428.56V426.992C363.229 426.939 363.245 426.896 363.277 426.864C363.32 426.821 363.368 426.8 363.421 426.8H371.485ZM375.261 438.128C374.365 438.128 373.597 437.893 372.957 437.424C372.317 436.955 371.88 436.315 371.645 435.504C371.496 435.003 371.421 434.459 371.421 433.872C371.421 433.243 371.496 432.677 371.645 432.176C371.89 431.387 372.333 430.768 372.973 430.32C373.613 429.872 374.381 429.648 375.277 429.648C376.152 429.648 376.898 429.872 377.517 430.32C378.136 430.757 378.573 431.371 378.829 432.16C379 432.693 379.085 433.253 379.085 433.84C379.085 434.416 379.01 434.955 378.861 435.456C378.626 436.288 378.189 436.944 377.549 437.424C376.92 437.893 376.157 438.128 375.261 438.128ZM375.261 436.192C375.613 436.192 375.912 436.085 376.157 435.872C376.402 435.659 376.578 435.365 376.685 434.992C376.77 434.651 376.813 434.277 376.813 433.872C376.813 433.424 376.77 433.045 376.685 432.736C376.568 432.373 376.386 432.091 376.141 431.888C375.896 431.685 375.597 431.584 375.245 431.584C374.882 431.584 374.578 431.685 374.333 431.888C374.098 432.091 373.928 432.373 373.821 432.736C373.736 432.992 373.693 433.371 373.693 433.872C373.693 434.352 373.73 434.725 373.805 434.992C373.912 435.365 374.088 435.659 374.333 435.872C374.589 436.085 374.898 436.192 375.261 436.192ZM384.074 438C384.021 438 383.973 437.984 383.93 437.952C383.898 437.909 383.882 437.861 383.882 437.808V426.992C383.882 426.939 383.898 426.896 383.93 426.864C383.973 426.821 384.021 426.8 384.074 426.8H388.074C388.874 426.8 389.573 426.944 390.17 427.232C390.778 427.509 391.248 427.904 391.578 428.416C391.909 428.928 392.074 429.52 392.074 430.192V434.608C392.074 435.28 391.909 435.872 391.578 436.384C391.248 436.896 390.778 437.296 390.17 437.584C389.573 437.861 388.874 438 388.074 438H384.074ZM386.138 435.984C386.138 436.037 386.165 436.064 386.218 436.064H388.154C388.645 436.064 389.04 435.899 389.338 435.568C389.648 435.237 389.808 434.795 389.818 434.24V430.56C389.818 430.005 389.664 429.563 389.354 429.232C389.056 428.901 388.65 428.736 388.138 428.736H386.218C386.165 428.736 386.138 428.763 386.138 428.816V435.984ZM394.845 428.848C394.482 428.848 394.178 428.731 393.933 428.496C393.698 428.251 393.581 427.947 393.581 427.584C393.581 427.211 393.698 426.907 393.933 426.672C394.168 426.437 394.472 426.32 394.845 426.32C395.218 426.32 395.522 426.437 395.757 426.672C395.992 426.907 396.109 427.211 396.109 427.584C396.109 427.947 395.986 428.251 395.741 428.496C395.506 428.731 395.208 428.848 394.845 428.848ZM393.885 438C393.832 438 393.784 437.984 393.741 437.952C393.709 437.909 393.693 437.861 393.693 437.808V429.952C393.693 429.899 393.709 429.856 393.741 429.824C393.784 429.781 393.832 429.76 393.885 429.76H395.757C395.81 429.76 395.853 429.781 395.885 429.824C395.928 429.856 395.949 429.899 395.949 429.952V437.808C395.949 437.861 395.928 437.909 395.885 437.952C395.853 437.984 395.81 438 395.757 438H393.885ZM399.995 438C399.888 438 399.819 437.947 399.787 437.84L397.227 429.984C397.216 429.963 397.211 429.936 397.211 429.904C397.211 429.808 397.27 429.76 397.387 429.76H399.451C399.568 429.76 399.643 429.813 399.675 429.92L400.987 434.768C400.998 434.8 401.014 434.816 401.035 434.816C401.056 434.816 401.072 434.8 401.083 434.768L402.395 429.92C402.427 429.813 402.502 429.76 402.619 429.76L404.683 429.792C404.747 429.792 404.795 429.813 404.827 429.856C404.859 429.888 404.864 429.941 404.843 430.016L402.299 437.84C402.267 437.947 402.198 438 402.091 438H399.995ZM412.768 433.04C412.832 433.445 412.854 433.899 412.832 434.4C412.822 434.528 412.752 434.592 412.624 434.592H407.68C407.616 434.592 407.595 434.619 407.616 434.672C407.648 434.885 407.707 435.099 407.792 435.312C408.07 435.909 408.635 436.208 409.488 436.208C410.171 436.197 410.71 435.92 411.104 435.376C411.147 435.312 411.195 435.28 411.248 435.28C411.28 435.28 411.318 435.301 411.36 435.344L412.512 436.48C412.566 436.533 412.592 436.581 412.592 436.624C412.592 436.645 412.571 436.688 412.528 436.752C412.176 437.189 411.723 437.531 411.168 437.776C410.614 438.011 410.006 438.128 409.344 438.128C408.427 438.128 407.648 437.92 407.008 437.504C406.379 437.088 405.926 436.507 405.648 435.76C405.424 435.227 405.312 434.528 405.312 433.664C405.312 433.077 405.392 432.56 405.552 432.112C405.798 431.355 406.224 430.752 406.832 430.304C407.451 429.856 408.182 429.632 409.024 429.632C410.091 429.632 410.944 429.941 411.584 430.56C412.235 431.179 412.63 432.005 412.768 433.04ZM409.04 431.584C408.368 431.584 407.926 431.899 407.712 432.528C407.67 432.667 407.632 432.837 407.6 433.04C407.6 433.093 407.627 433.12 407.68 433.12H410.448C410.512 433.12 410.534 433.093 410.512 433.04C410.459 432.731 410.432 432.581 410.432 432.592C410.336 432.272 410.166 432.027 409.92 431.856C409.686 431.675 409.392 431.584 409.04 431.584ZM418.642 428.848C418.279 428.848 417.975 428.731 417.73 428.496C417.495 428.251 417.378 427.947 417.378 427.584C417.378 427.211 417.495 426.907 417.73 426.672C417.964 426.437 418.268 426.32 418.642 426.32C419.015 426.32 419.319 426.437 419.554 426.672C419.788 426.907 419.906 427.211 419.906 427.584C419.906 427.947 419.783 428.251 419.538 428.496C419.303 428.731 419.004 428.848 418.642 428.848ZM417.682 438C417.628 438 417.58 437.984 417.538 437.952C417.506 437.909 417.49 437.861 417.49 437.808V429.952C417.49 429.899 417.506 429.856 417.538 429.824C417.58 429.781 417.628 429.76 417.682 429.76H419.554C419.607 429.76 419.65 429.781 419.682 429.824C419.724 429.856 419.746 429.899 419.746 429.952V437.808C419.746 437.861 419.724 437.909 419.682 437.952C419.65 437.984 419.607 438 419.554 438H417.682ZM425.792 429.648C426.645 429.648 427.333 429.909 427.856 430.432C428.379 430.955 428.64 431.664 428.64 432.56V437.808C428.64 437.861 428.619 437.909 428.576 437.952C428.544 437.984 428.501 438 428.448 438H426.576C426.523 438 426.475 437.984 426.432 437.952C426.4 437.909 426.384 437.861 426.384 437.808V433.024C426.384 432.597 426.261 432.251 426.016 431.984C425.781 431.717 425.467 431.584 425.072 431.584C424.677 431.584 424.357 431.717 424.112 431.984C423.877 432.251 423.76 432.597 423.76 433.024V437.808C423.76 437.861 423.739 437.909 423.696 437.952C423.664 437.984 423.621 438 423.568 438H421.696C421.643 438 421.595 437.984 421.552 437.952C421.52 437.909 421.504 437.861 421.504 437.808V429.968C421.504 429.915 421.52 429.872 421.552 429.84C421.595 429.797 421.643 429.776 421.696 429.776H423.568C423.621 429.776 423.664 429.797 423.696 429.84C423.739 429.872 423.76 429.915 423.76 429.968V430.528C423.76 430.56 423.771 430.581 423.792 430.592C423.813 430.603 423.829 430.597 423.84 430.576C424.277 429.957 424.928 429.648 425.792 429.648ZM431.377 438.064C431.014 438.064 430.71 437.947 430.465 437.712C430.23 437.467 430.113 437.163 430.113 436.8C430.113 436.427 430.23 436.123 430.465 435.888C430.7 435.653 431.004 435.536 431.377 435.536C431.75 435.536 432.054 435.653 432.289 435.888C432.524 436.123 432.641 436.427 432.641 436.8C432.641 437.163 432.518 437.467 432.273 437.712C432.038 437.947 431.74 438.064 431.377 438.064ZM435.689 438.064C435.327 438.064 435.023 437.947 434.777 437.712C434.543 437.467 434.425 437.163 434.425 436.8C434.425 436.427 434.543 436.123 434.777 435.888C435.012 435.653 435.316 435.536 435.689 435.536C436.063 435.536 436.367 435.653 436.601 435.888C436.836 436.123 436.953 436.427 436.953 436.8C436.953 437.163 436.831 437.467 436.585 437.712C436.351 437.947 436.052 438.064 435.689 438.064ZM440.002 438.064C439.639 438.064 439.335 437.947 439.09 437.712C438.855 437.467 438.738 437.163 438.738 436.8C438.738 436.427 438.855 436.123 439.09 435.888C439.325 435.653 439.629 435.536 440.002 435.536C440.375 435.536 440.679 435.653 440.914 435.888C441.149 436.123 441.266 436.427 441.266 436.8C441.266 437.163 441.143 437.467 440.898 437.712C440.663 437.947 440.365 438.064 440.002 438.064Z" fill="white"/>
</svg>
