<svg width="719" height="246" viewBox="0 0 719 246" fill="none" xmlns="http://www.w3.org/2000/svg">
<path d="M28.896 96.768C23.776 96.768 19.296 95.968 15.456 94.368C11.616 92.704 8.64 90.368 6.528 87.36C4.48 84.288 3.456 80.736 3.456 76.704V74.592C3.456 74.272 3.552 74.016 3.744 73.824C4 73.568 4.288 73.44 4.608 73.44H15.552C15.872 73.44 16.128 73.568 16.32 73.824C16.576 74.016 16.704 74.272 16.704 74.592V76.032C16.704 78.592 17.888 80.768 20.256 82.56C22.624 84.288 25.824 85.152 29.856 85.152C33.248 85.152 35.776 84.448 37.44 83.04C39.104 81.568 39.936 79.776 39.936 77.664C39.936 76.128 39.424 74.848 38.4 73.824C37.376 72.736 35.968 71.808 34.176 71.04C32.448 70.208 29.664 69.088 25.824 67.68C21.536 66.208 17.888 64.704 14.88 63.168C11.936 61.632 9.44 59.552 7.392 56.928C5.408 54.24 4.416 50.944 4.416 47.04C4.416 43.2 5.408 39.84 7.392 36.96C9.376 34.08 12.128 31.872 15.648 30.336C19.168 28.8 23.232 28.032 27.84 28.032C32.704 28.032 37.024 28.896 40.8 30.624C44.64 32.352 47.616 34.784 49.728 37.92C51.904 40.992 52.992 44.576 52.992 48.672V50.112C52.992 50.432 52.864 50.72 52.608 50.976C52.416 51.168 52.16 51.264 51.84 51.264H40.8C40.48 51.264 40.192 51.168 39.936 50.976C39.744 50.72 39.648 50.432 39.648 50.112V49.344C39.648 46.656 38.528 44.384 36.288 42.528C34.112 40.608 31.104 39.648 27.264 39.648C24.256 39.648 21.888 40.288 20.16 41.568C18.496 42.848 17.664 44.608 17.664 46.848C17.664 48.448 18.144 49.792 19.104 50.88C20.128 51.968 21.6 52.96 23.52 53.856C25.504 54.688 28.544 55.84 32.64 57.312C37.184 58.976 40.736 60.448 43.296 61.728C45.92 63.008 48.256 64.928 50.304 67.488C52.416 69.984 53.472 73.248 53.472 77.28C53.472 83.296 51.264 88.064 46.848 91.584C42.432 95.04 36.448 96.768 28.896 96.768ZM86.8538 97.056C81.8618 97.056 77.4458 96.032 73.6058 93.984C69.8298 91.936 66.8858 89.088 64.7738 85.44C62.6618 81.728 61.6058 77.472 61.6058 72.672V52.128C61.6058 47.392 62.6618 43.2 64.7738 39.552C66.8858 35.904 69.8298 33.088 73.6058 31.104C77.4458 29.056 81.8618 28.032 86.8538 28.032C91.9098 28.032 96.3258 29.056 100.102 31.104C103.942 33.088 106.918 35.904 109.03 39.552C111.142 43.2 112.198 47.392 112.198 52.128V72.672C112.198 77.472 111.142 81.728 109.03 85.44C106.918 89.152 103.942 92.032 100.102 94.08C96.3258 96.064 91.9098 97.056 86.8538 97.056ZM86.8538 85.44C90.3738 85.44 93.2218 84.32 95.3978 82.08C97.5738 79.84 98.6618 76.864 98.6618 73.152V52.032C98.6618 48.32 97.5738 45.344 95.3978 43.104C93.2858 40.8 90.4378 39.648 86.8538 39.648C83.3338 39.648 80.4858 40.8 78.3098 43.104C76.1978 45.344 75.1418 48.32 75.1418 52.032V73.152C75.1418 76.864 76.1978 79.84 78.3098 82.08C80.4858 84.32 83.3338 85.44 86.8538 85.44ZM123.727 96C123.407 96 123.119 95.904 122.863 95.712C122.671 95.456 122.575 95.168 122.575 94.848V29.952C122.575 29.632 122.671 29.376 122.863 29.184C123.119 28.928 123.407 28.8 123.727 28.8H134.959C135.279 28.8 135.535 28.928 135.727 29.184C135.983 29.376 136.111 29.632 136.111 29.952V83.904C136.111 84.224 136.271 84.384 136.591 84.384H167.983C168.303 84.384 168.559 84.512 168.751 84.768C169.007 84.96 169.135 85.216 169.135 85.536V94.848C169.135 95.168 169.007 95.456 168.751 95.712C168.559 95.904 168.303 96 167.983 96H123.727Z" fill="white"/>
<path d="M332.056 29.568C332.376 29.056 332.824 28.8 333.4 28.8H344.632C344.952 28.8 345.208 28.928 345.4 29.184C345.656 29.376 345.784 29.632 345.784 29.952V94.848C345.784 95.168 345.656 95.456 345.4 95.712C345.208 95.904 344.952 96 344.632 96H333.4C333.08 96 332.792 95.904 332.536 95.712C332.344 95.456 332.248 95.168 332.248 94.848V52.512C332.248 52.256 332.184 52.128 332.056 52.128C331.928 52.128 331.8 52.224 331.672 52.416L321.496 68.352C321.176 68.864 320.728 69.12 320.152 69.12H314.488C313.912 69.12 313.464 68.864 313.144 68.352L302.968 52.416C302.84 52.224 302.712 52.16 302.584 52.224C302.456 52.224 302.392 52.352 302.392 52.608V94.848C302.392 95.168 302.264 95.456 302.008 95.712C301.816 95.904 301.56 96 301.24 96H290.008C289.688 96 289.4 95.904 289.144 95.712C288.952 95.456 288.856 95.168 288.856 94.848V29.952C288.856 29.632 288.952 29.376 289.144 29.184C289.4 28.928 289.688 28.8 290.008 28.8H301.24C301.816 28.8 302.264 29.056 302.584 29.568L316.984 51.936C317.176 52.32 317.368 52.32 317.56 51.936L332.056 29.568ZM381.385 97.056C376.393 97.056 371.977 96.032 368.137 93.984C364.361 91.936 361.417 89.088 359.305 85.44C357.193 81.728 356.137 77.472 356.137 72.672V52.128C356.137 47.392 357.193 43.2 359.305 39.552C361.417 35.904 364.361 33.088 368.137 31.104C371.977 29.056 376.393 28.032 381.385 28.032C386.441 28.032 390.857 29.056 394.633 31.104C398.473 33.088 401.449 35.904 403.561 39.552C405.673 43.2 406.729 47.392 406.729 52.128V72.672C406.729 77.472 405.673 81.728 403.561 85.44C401.449 89.152 398.473 92.032 394.633 94.08C390.857 96.064 386.441 97.056 381.385 97.056ZM381.385 85.44C384.905 85.44 387.753 84.32 389.929 82.08C392.105 79.84 393.193 76.864 393.193 73.152V52.032C393.193 48.32 392.105 45.344 389.929 43.104C387.817 40.8 384.969 39.648 381.385 39.648C377.865 39.648 375.017 40.8 372.841 43.104C370.729 45.344 369.673 48.32 369.673 52.032V73.152C369.673 76.864 370.729 79.84 372.841 82.08C375.017 84.32 377.865 85.44 381.385 85.44ZM455.698 29.952C455.698 29.632 455.794 29.376 455.986 29.184C456.242 28.928 456.53 28.8 456.85 28.8H468.082C468.402 28.8 468.658 28.928 468.85 29.184C469.106 29.376 469.234 29.632 469.234 29.952V94.848C469.234 95.168 469.106 95.456 468.85 95.712C468.658 95.904 468.402 96 468.082 96H457.234C456.594 96 456.146 95.744 455.89 95.232L431.026 54.144C430.898 53.952 430.77 53.888 430.642 53.952C430.514 53.952 430.45 54.08 430.45 54.336L430.642 94.848C430.642 95.168 430.514 95.456 430.258 95.712C430.066 95.904 429.81 96 429.49 96H418.258C417.938 96 417.65 95.904 417.394 95.712C417.202 95.456 417.106 95.168 417.106 94.848V29.952C417.106 29.632 417.202 29.376 417.394 29.184C417.65 28.928 417.938 28.8 418.258 28.8H429.106C429.746 28.8 430.194 29.056 430.45 29.568L455.218 70.464C455.346 70.656 455.474 70.752 455.602 70.752C455.73 70.688 455.794 70.528 455.794 70.272L455.698 29.952Z" fill="white"/>
<path d="M143.472 227.768C138.48 227.768 134.096 226.808 130.32 224.888C126.544 222.904 123.632 220.152 121.584 216.632C119.536 213.112 118.512 209.048 118.512 204.44V182.264C118.512 177.656 119.536 173.592 121.584 170.072C123.632 166.552 126.544 163.832 130.32 161.912C134.096 159.992 138.48 159.032 143.472 159.032C148.4 159.032 152.72 159.96 156.432 161.816C160.208 163.608 163.12 166.2 165.168 169.592C167.28 172.92 168.336 176.792 168.336 181.208C168.336 181.784 167.952 182.136 167.184 182.264L155.952 182.936H155.76C155.12 182.936 154.8 182.584 154.8 181.88C154.8 178.488 153.744 175.768 151.632 173.72C149.584 171.672 146.864 170.648 143.472 170.648C140.016 170.648 137.232 171.672 135.12 173.72C133.072 175.768 132.048 178.488 132.048 181.88V205.016C132.048 208.344 133.072 211.032 135.12 213.08C137.232 215.128 140.016 216.152 143.472 216.152C146.864 216.152 149.584 215.128 151.632 213.08C153.744 211.032 154.8 208.344 154.8 205.016C154.8 204.312 155.184 203.96 155.952 203.96L167.184 204.44C167.504 204.44 167.76 204.536 167.952 204.728C168.208 204.92 168.336 205.144 168.336 205.4C168.336 209.816 167.28 213.72 165.168 217.112C163.12 220.504 160.208 223.128 156.432 224.984C152.72 226.84 148.4 227.768 143.472 227.768Z" fill="white"/>
<path d="M326.448 160.952C326.448 160.632 326.544 160.376 326.736 160.184C326.992 159.928 327.28 159.8 327.6 159.8H338.832C339.152 159.8 339.408 159.928 339.6 160.184C339.856 160.376 339.984 160.632 339.984 160.952V225.848C339.984 226.168 339.856 226.456 339.6 226.712C339.408 226.904 339.152 227 338.832 227H327.984C327.344 227 326.896 226.744 326.64 226.232L301.776 185.144C301.648 184.952 301.52 184.888 301.392 184.952C301.264 184.952 301.2 185.08 301.2 185.336L301.392 225.848C301.392 226.168 301.264 226.456 301.008 226.712C300.816 226.904 300.56 227 300.24 227H289.008C288.688 227 288.4 226.904 288.144 226.712C287.952 226.456 287.856 226.168 287.856 225.848V160.952C287.856 160.632 287.952 160.376 288.144 160.184C288.4 159.928 288.688 159.8 289.008 159.8H299.856C300.496 159.8 300.944 160.056 301.2 160.568L325.968 201.464C326.096 201.656 326.224 201.752 326.352 201.752C326.48 201.688 326.544 201.528 326.544 201.272L326.448 160.952ZM374.74 227.768C369.62 227.768 365.14 226.968 361.3 225.368C357.46 223.704 354.484 221.368 352.372 218.36C350.324 215.288 349.3 211.736 349.3 207.704V205.592C349.3 205.272 349.396 205.016 349.588 204.824C349.844 204.568 350.132 204.44 350.452 204.44H361.396C361.716 204.44 361.972 204.568 362.164 204.824C362.42 205.016 362.548 205.272 362.548 205.592V207.032C362.548 209.592 363.732 211.768 366.1 213.56C368.468 215.288 371.668 216.152 375.7 216.152C379.092 216.152 381.62 215.448 383.284 214.04C384.948 212.568 385.78 210.776 385.78 208.664C385.78 207.128 385.268 205.848 384.244 204.824C383.22 203.736 381.812 202.808 380.02 202.04C378.292 201.208 375.508 200.088 371.668 198.68C367.38 197.208 363.732 195.704 360.724 194.168C357.78 192.632 355.284 190.552 353.236 187.928C351.252 185.24 350.26 181.944 350.26 178.04C350.26 174.2 351.252 170.84 353.236 167.96C355.22 165.08 357.972 162.872 361.492 161.336C365.012 159.8 369.076 159.032 373.684 159.032C378.548 159.032 382.868 159.896 386.644 161.624C390.484 163.352 393.46 165.784 395.572 168.92C397.748 171.992 398.836 175.576 398.836 179.672V181.112C398.836 181.432 398.708 181.72 398.452 181.976C398.26 182.168 398.004 182.264 397.684 182.264H386.644C386.324 182.264 386.036 182.168 385.78 181.976C385.588 181.72 385.492 181.432 385.492 181.112V180.344C385.492 177.656 384.372 175.384 382.132 173.528C379.956 171.608 376.948 170.648 373.108 170.648C370.1 170.648 367.732 171.288 366.004 172.568C364.34 173.848 363.508 175.608 363.508 177.848C363.508 179.448 363.988 180.792 364.948 181.88C365.972 182.968 367.444 183.96 369.364 184.856C371.348 185.688 374.388 186.84 378.484 188.312C383.028 189.976 386.58 191.448 389.14 192.728C391.764 194.008 394.1 195.928 396.148 198.488C398.26 200.984 399.316 204.248 399.316 208.28C399.316 214.296 397.108 219.064 392.692 222.584C388.276 226.04 382.292 227.768 374.74 227.768ZM433.178 227.768C428.25 227.768 423.898 226.808 420.122 224.888C416.41 222.968 413.498 220.28 411.386 216.824C409.338 213.304 408.314 209.272 408.314 204.728V160.952C408.314 160.632 408.41 160.376 408.602 160.184C408.858 159.928 409.146 159.8 409.466 159.8H420.698C421.018 159.8 421.274 159.928 421.466 160.184C421.722 160.376 421.85 160.632 421.85 160.952V204.824C421.85 208.216 422.874 210.968 424.922 213.08C427.034 215.128 429.786 216.152 433.178 216.152C436.57 216.152 439.29 215.128 441.338 213.08C443.45 210.968 444.506 208.216 444.506 204.824V160.952C444.506 160.632 444.602 160.376 444.794 160.184C445.05 159.928 445.338 159.8 445.658 159.8H456.89C457.21 159.8 457.466 159.928 457.658 160.184C457.914 160.376 458.042 160.632 458.042 160.952V204.728C458.042 209.272 456.986 213.304 454.874 216.824C452.826 220.28 449.914 222.968 446.138 224.888C442.426 226.808 438.106 227.768 433.178 227.768ZM470.321 227C470.001 227 469.713 226.904 469.457 226.712C469.265 226.456 469.169 226.168 469.169 225.848V160.952C469.169 160.632 469.265 160.376 469.457 160.184C469.713 159.928 470.001 159.8 470.321 159.8H481.553C481.873 159.8 482.129 159.928 482.321 160.184C482.577 160.376 482.705 160.632 482.705 160.952V214.904C482.705 215.224 482.865 215.384 483.185 215.384H514.577C514.897 215.384 515.153 215.512 515.345 215.768C515.601 215.96 515.729 216.216 515.729 216.536V225.848C515.729 226.168 515.601 226.456 515.345 226.712C515.153 226.904 514.897 227 514.577 227H470.321ZM562.505 159.8C562.825 159.8 563.081 159.928 563.273 160.184C563.529 160.376 563.657 160.632 563.657 160.952V170.36C563.657 170.68 563.529 170.968 563.273 171.224C563.081 171.416 562.825 171.512 562.505 171.512H545.321C545.001 171.512 544.841 171.672 544.841 171.992V225.848C544.841 226.168 544.713 226.456 544.457 226.712C544.265 226.904 544.009 227 543.689 227H532.457C532.137 227 531.849 226.904 531.593 226.712C531.401 226.456 531.305 226.168 531.305 225.848V171.992C531.305 171.672 531.145 171.512 530.825 171.512H514.121C513.801 171.512 513.513 171.416 513.257 171.224C513.065 170.968 512.969 170.68 512.969 170.36V160.952C512.969 160.632 513.065 160.376 513.257 160.184C513.513 159.928 513.801 159.8 514.121 159.8H562.505ZM573.446 227C573.126 227 572.838 226.904 572.582 226.712C572.39 226.456 572.294 226.168 572.294 225.848V160.952C572.294 160.632 572.39 160.376 572.582 160.184C572.838 159.928 573.126 159.8 573.446 159.8H584.678C584.998 159.8 585.254 159.928 585.446 160.184C585.702 160.376 585.83 160.632 585.83 160.952V225.848C585.83 226.168 585.702 226.456 585.446 226.712C585.254 226.904 584.998 227 584.678 227H573.446ZM636.104 160.952C636.104 160.632 636.2 160.376 636.392 160.184C636.648 159.928 636.936 159.8 637.256 159.8H648.488C648.808 159.8 649.064 159.928 649.256 160.184C649.512 160.376 649.64 160.632 649.64 160.952V225.848C649.64 226.168 649.512 226.456 649.256 226.712C649.064 226.904 648.808 227 648.488 227H637.64C637 227 636.552 226.744 636.296 226.232L611.432 185.144C611.304 184.952 611.176 184.888 611.048 184.952C610.92 184.952 610.856 185.08 610.856 185.336L611.048 225.848C611.048 226.168 610.92 226.456 610.664 226.712C610.472 226.904 610.216 227 609.896 227H598.664C598.344 227 598.056 226.904 597.8 226.712C597.608 226.456 597.512 226.168 597.512 225.848V160.952C597.512 160.632 597.608 160.376 597.8 160.184C598.056 159.928 598.344 159.8 598.664 159.8H609.512C610.152 159.8 610.6 160.056 610.856 160.568L635.624 201.464C635.752 201.656 635.88 201.752 636.008 201.752C636.136 201.688 636.2 201.528 636.2 201.272L636.104 160.952ZM684.972 227.768C680.044 227.768 675.692 226.776 671.916 224.792C668.14 222.808 665.196 220.056 663.084 216.536C661.036 212.952 660.012 208.824 660.012 204.152V182.648C660.012 177.976 661.036 173.848 663.084 170.264C665.196 166.68 668.14 163.928 671.916 162.008C675.692 160.024 680.044 159.032 684.972 159.032C689.836 159.032 694.124 159.992 697.836 161.912C701.612 163.832 704.524 166.456 706.572 169.784C708.684 173.048 709.74 176.696 709.74 180.728V181.4C709.74 181.72 709.612 182.008 709.356 182.264C709.164 182.456 708.908 182.552 708.588 182.552H697.356C697.036 182.552 696.748 182.456 696.492 182.264C696.3 182.008 696.204 181.72 696.204 181.4V181.112C696.204 178.168 695.18 175.704 693.132 173.72C691.084 171.672 688.364 170.648 684.972 170.648C681.516 170.648 678.732 171.736 676.62 173.912C674.572 176.024 673.548 178.808 673.548 182.264V204.536C673.548 207.992 674.668 210.808 676.908 212.984C679.148 215.096 681.996 216.152 685.452 216.152C688.78 216.152 691.436 215.288 693.42 213.56C695.404 211.768 696.396 209.304 696.396 206.168V201.848C696.396 201.528 696.236 201.368 695.916 201.368H685.164C684.844 201.368 684.556 201.272 684.3 201.08C684.108 200.824 684.012 200.536 684.012 200.216V191.384C684.012 191.064 684.108 190.808 684.3 190.616C684.556 190.36 684.844 190.232 685.164 190.232H708.588C708.908 190.232 709.164 190.36 709.356 190.616C709.612 190.808 709.74 191.064 709.74 191.384V204.056C709.74 208.92 708.716 213.144 706.668 216.728C704.62 220.312 701.708 223.064 697.932 224.984C694.22 226.84 689.9 227.768 684.972 227.768Z" fill="white"/>
<rect x="193.191" y="10" width="68.9787" height="226" rx="34.4894" stroke="#FFC440" stroke-width="20"/>
</svg>
